<!--
  CleanDock logo (SVG)
  Purpose: local logo asset served via Netlify CDN for reliability and performance.
  Notes:
  - Colors use accessible contrast on light backgrounds.
  - Replace this file with your final brand SVG anytime; path remains /logo.svg.
-->
<svg xmlns="http://www.w3.org/2000/svg" viewBox="0 0 96 96" role="img" aria-label="CleanDock logo">
  <title>CleanDock logo</title>
  <defs>
    <linearGradient id="cd-teal" x1="0" y1="0" x2="1" y2="1">
      <stop offset="0%" stop-color="#14b8a6"/>
      <stop offset="100%" stop-color="#0ea5e9"/>
    </linearGradient>
  </defs>

  <!-- Teal base shape -->
  <path d="M16 56c0-22 18-40 40-40 6.2 0 12.1 1.4 17.2 3.9C64 23 57 28 52.7 35.7 48.9 42.5 47.2 51 48.8 60.5 50 67.5 53 73.6 57.4 78.9 54.2 80 50.7 80.6 47 80.6 31.1 80.6 16 71.2 16 56z" fill="url(#cd-teal)"/>

  <!-- Blue swoosh -->
  <path d="M86 28c-8 11.2-24.3 17.6-40.6 20.5-9.6 1.7-19.1 2.1-27.7 1.5 7.6 6.6 19.5 9.7 33.6 7.2C68.9 55 81.5 45 86 28z" fill="#3b82f6" opacity="0.9"/>

  <!-- Inner highlight -->
  <circle cx="60" cy="36" r="6" fill="#ffffff" opacity="0.65"/>
</svg>